<?xml version="1.0" standalone="no"?>
<!DOCTYPE svg PUBLIC "-//W3C//DTD SVG 20010904//EN"
 "http://www.w3.org/TR/2001/REC-SVG-20010904/DTD/svg10.dtd">
<svg version="1.0" xmlns="http://www.w3.org/2000/svg"
 width="512.000000pt" height="512.000000pt" viewBox="0 0 512.000000 512.000000"
 preserveAspectRatio="xMidYMid meet">
<metadata>
Created by potrace 1.11, written by Peter Selinger 2001-2013
</metadata>
<g transform="translate(0.000000,512.000000) scale(0.100000,-0.100000)"
fill="#000000" stroke="none">
<path d="M2470 4904 c-47 -25 -132 -70 -190 -101 -103 -55 -169 -90 -292 -157
-35 -18 -103 -55 -153 -81 -49 -26 -121 -65 -160 -85 -38 -21 -140 -75 -225
-120 -85 -45 -177 -95 -205 -110 -27 -15 -104 -55 -170 -90 -66 -34 -124 -66
-130 -70 -5 -4 -64 -35 -130 -70 -66 -35 -160 -85 -210 -112 -49 -26 -123 -65
-162 -85 l-73 -38 -1 -50 c0 -65 0 -2325 0 -2346 1 -8 25 -28 53 -43 29 -16
163 -89 298 -164 135 -74 268 -147 295 -162 65 -36 427 -235 485 -268 25 -13
63 -35 85 -47 131 -71 183 -100 210 -115 38 -22 109 -61 205 -113 41 -22 109
-59 150 -82 41 -24 92 -52 113 -64 20 -11 96 -53 167 -92 l130 -71 72 40 c71
38 121 66 258 139 36 20 83 46 105 58 22 12 69 38 105 57 36 20 82 45 103 57
22 12 78 43 125 68 48 25 122 66 164 89 43 24 80 44 82 44 3 0 28 14 56 30 28
17 79 45 113 64 81 43 489 266 547 298 25 14 138 76 253 137 l207 112 1 47 c2
209 0 2374 -3 2376 -1 2 -57 31 -123 66 -66 35 -138 73 -160 85 -40 23 -130
71 -285 152 -47 25 -118 63 -157 84 -72 39 -150 80 -300 160 -43 23 -91 49
-108 59 -16 9 -93 50 -170 90 -77 40 -158 83 -180 95 -39 22 -115 63 -279 150
-45 23 -112 60 -151 80 -134 72 -274 145 -277 145 -2 0 -41 -21 -88 -46z m199
-465 c53 -29 134 -72 181 -97 47 -24 108 -57 135 -72 28 -15 91 -49 140 -75
50 -26 122 -64 160 -85 39 -21 106 -57 150 -80 44 -23 112 -59 150 -80 348
-187 707 -378 742 -394 14 -7 23 -20 24 -36 0 -14 1 -449 1 -968 1 -912 0
-943 -18 -957 -11 -8 -30 -20 -44 -27 -14 -7 -108 -58 -210 -114 -102 -55
-221 -120 -265 -144 -44 -24 -172 -94 -285 -155 -113 -62 -234 -128 -270 -147
-36 -20 -85 -47 -110 -60 -25 -14 -126 -69 -225 -123 -99 -54 -205 -111 -235
-128 -30 -17 -72 -39 -92 -50 l-37 -20 -111 62 c-61 33 -113 61 -116 61 -2 0
-21 10 -42 23 -20 13 -77 45 -127 72 -49 26 -94 51 -100 55 -5 4 -41 24 -80
45 -89 48 -138 75 -310 170 -77 43 -169 93 -205 113 -36 19 -99 54 -140 77
-41 23 -100 55 -130 72 -30 17 -71 39 -90 50 -19 10 -104 57 -187 103 -119 65
-153 88 -154 104 -1 27 -1 1806 0 1869 1 26 5 47 9 47 5 0 49 22 98 48 49 27
134 72 189 102 183 97 999 532 1060 565 33 18 107 57 165 88 58 30 139 74 180
96 41 22 81 41 89 41 7 0 57 -23 110 -51z"/>
<path d="M2415 3916 c-133 -69 -320 -165 -810 -416 -121 -62 -269 -139 -330
-170 l-110 -57 0 -689 c-1 -379 1 -696 3 -704 3 -13 121 -79 501 -280 80 -42
218 -116 336 -180 28 -15 100 -53 160 -86 61 -32 142 -75 180 -96 39 -21 103
-55 142 -75 l73 -38 82 43 c46 23 128 66 183 95 55 29 154 82 220 116 66 35
143 76 170 91 28 15 109 58 180 95 72 37 153 80 180 95 45 25 103 55 310 164
l70 37 0 706 0 707 -110 56 c-60 31 -218 112 -350 180 -391 200 -621 318 -782
401 -84 44 -154 79 -155 78 -2 0 -66 -33 -143 -73z m-55 -859 l0 -374 -107
-55 c-60 -30 -207 -106 -328 -168 -121 -62 -248 -128 -282 -146 -34 -19 -66
-34 -70 -34 -12 0 -10 737 2 749 6 5 123 67 260 137 138 70 309 158 380 196
72 37 133 68 138 68 4 0 7 -168 7 -373z m588 282 c97 -50 269 -139 382 -196
113 -58 209 -110 215 -115 9 -8 16 -768 7 -768 -4 0 -180 93 -253 133 -24 13
-89 48 -144 77 -55 29 -122 65 -150 80 -27 15 -94 50 -147 79 l-98 52 0 375
c0 206 2 374 5 374 3 0 85 -41 183 -91z m-279 -1065 c58 -31 129 -69 156 -84
28 -15 100 -54 160 -86 61 -32 146 -77 190 -100 44 -23 81 -46 82 -51 2 -4 -7
-13 -20 -19 -39 -18 -362 -186 -372 -194 -5 -4 -76 -42 -158 -84 l-147 -77
-183 97 c-100 54 -195 105 -212 114 -16 9 -88 47 -160 85 -145 76 -159 85
-148 95 4 4 125 67 268 140 143 74 296 153 340 176 44 24 84 44 89 44 5 0 56
-25 115 -56z"/>
</g>
</svg>
